<?xml version="1.0" encoding="UTF-8" standalone="no" ?>
<!DOCTYPE svg PUBLIC "-//W3C//DTD SVG 1.1//EN" "http://www.w3.org/Graphics/SVG/1.1/DTD/svg11.dtd">
<svg xmlns="http://www.w3.org/2000/svg" xmlns:xlink="http://www.w3.org/1999/xlink" version="1.1" width="1425" height="145" viewBox="0 0 1425 145" xml:space="preserve">
<desc>Created with Fabric.js 3.6.6</desc>
<defs>
</defs>
<g transform="matrix(1 0 0 1 312 69)"  >
<line style="stroke: rgb(0,0,0); stroke-width: 2; stroke-dasharray: none; stroke-linecap: butt; stroke-dashoffset: 0; stroke-linejoin: miter; stroke-miterlimit: 4; fill: rgb(0,0,0); fill-rule: nonzero; opacity: 1;" vector-effect="non-scaling-stroke"  x1="0" y1="0" x2="0" y2="0" />
</g>
<g transform="matrix(1 0 0 1 724.45 64.2)"  >
<g style=""   >
		<g transform="matrix(1 0 0 1 -662.25 9.16)" id="Layer_2"  >
<path style="stroke: rgb(234,169,54); stroke-width: 6; stroke-dasharray: none; stroke-linecap: butt; stroke-dashoffset: 0; stroke-linejoin: miter; stroke-miterlimit: 10; fill: rgb(168,14,2); fill-rule: nonzero; opacity: 1;"  transform=" translate(-104.2, -305.36)" d="M 152.5 324.6 c -0.2 0 -0.4 -0.1 -0.4 -0.3 l -20.4 -40.4 l -16.1 -31.8 c -4 -7.3 -8.2 -13.6 -20.7 -15.2 c -12.7 -1.6 -23 -0.6 -25.2 -0.3 c -0.3 0 -0.4 0.2 -0.4 0.5 v 18.1 c 0 0.3 0.2 0.5 0.5 0.5 h 21.5 c 0 0 0 0 0.1 0 l 5.3 -0.7 l -14.9 29.4 l -20.3 40 c -0.1 0.2 -0.3 0.3 -0.4 0.3 H 45.7 c -0.3 0 -0.5 0.2 -0.5 0.5 v 49 c 0 0.3 0.2 0.5 0.5 0.5 h 21 c 0.3 0 0.5 -0.2 0.5 -0.5 v -31 c 0 -0.3 0.2 -0.5 0.5 -0.5 h 73 c 0.3 0 0.5 0.2 0.5 0.5 v 31 c 0 0.3 0.2 0.5 0.5 0.5 h 21 c 0.3 0 0.5 -0.2 0.5 -0.5 v -33.3 v -15.8 c 0 -0.3 -0.2 -0.5 -0.5 -0.5 H 152.5 z M 106.5 324.6 H 85.3 c -0.4 0 -0.6 -0.4 -0.4 -0.7 l 10.6 -21.5 l 10.5 -20.9 c 0.2 -0.4 0.7 -0.4 0.9 0 l 10.5 21.1 l 10.6 21.3 c 0.2 0.3 -0.1 0.7 -0.4 0.7 H 106.5 z" stroke-linecap="round" />
</g>
		<g transform="matrix(1 0 0 1 -544.55 -4.5)" id="Layer_2"  >
<path style="stroke: rgb(234,169,54); stroke-width: 6; stroke-dasharray: none; stroke-linecap: butt; stroke-dashoffset: 0; stroke-linejoin: miter; stroke-miterlimit: 10; fill: rgb(168,14,2); fill-rule: nonzero; opacity: 1;"  transform=" translate(-221.9, -291.7)" d="M 223.7 237.1 c -31.6 -1 -57.4 24.8 -56.4 56.4 c 0.9 28.6 24.2 51.9 52.8 52.8 c 31.6 1 57.4 -24.8 56.4 -56.4 C 275.6 261.3 252.3 238 223.7 237.1 z M 224.1 326.2 c -20.9 1.3 -38.1 -15.9 -36.7 -36.7 c 1.1 -17.2 15 -31.2 32.2 -32.2 c 20.9 -1.3 38.1 15.9 36.7 36.7 C 255.3 311.1 241.3 325.1 224.1 326.2 z" stroke-linecap="round" />
</g>
		<g transform="matrix(1 0 0 1 -436.64 -4.18)" id="Layer_2"  >
<path style="stroke: rgb(234,169,54); stroke-width: 6; stroke-dasharray: none; stroke-linecap: butt; stroke-dashoffset: 0; stroke-linejoin: miter; stroke-miterlimit: 10; fill: rgb(168,14,2); fill-rule: nonzero; opacity: 1;"  transform=" translate(-329.81, -292.02)" d="M 356.9 291.3 l -18.3 -37.8 c -3 -6.3 -6.6 -13.8 -19 -15.4 c -10.9 -1.4 -19.9 -0.5 -22 -0.2 c -0.3 0 -0.4 0.2 -0.4 0.5 v 15.8 c 0 0.3 0.2 0.5 0.5 0.5 h 18.8 c 0 0 0 0 0.1 0 l 4.9 -0.7 l -19 38.1 l -26.9 53.9 c -0.2 0.3 0.1 0.7 0.4 0.7 h 19.6 c 0.2 0 0.4 -0.1 0.5 -0.3 l 16.7 -34.9 l 16.4 -33.1 c 0.2 -0.4 0.7 -0.4 0.9 0 l 16.4 33.7 l 16.7 34.3 c 0.1 0.2 0.3 0.3 0.4 0.3 h 20 c 0.4 0 0.6 -0.4 0.4 -0.7 L 356.9 291.3 z" stroke-linecap="round" />
</g>
		<g transform="matrix(1 0 0 1 -329.25 -4.7)" id="Layer_2"  >
<path style="stroke: rgb(234,169,54); stroke-width: 6; stroke-dasharray: none; stroke-linecap: butt; stroke-dashoffset: 0; stroke-linejoin: miter; stroke-miterlimit: 10; fill: rgb(168,14,2); fill-rule: nonzero; opacity: 1;"  transform=" translate(-437.2, -291.5)" d="M 463.2 237.1 v 16.8 c 0 0.2 -0.1 0.4 -0.3 0.4 l -51 27.7 c -0.3 0.2 -0.7 -0.1 -0.7 -0.4 v -44.6 c 0 -0.3 -0.2 -0.5 -0.5 -0.5 h -18 c -0.3 0 -0.5 0.2 -0.5 0.5 v 109 c 0 0.3 0.2 0.5 0.5 0.5 h 18 c 0.3 0 0.5 -0.2 0.5 -0.5 v -42 c 0 -0.2 0.1 -0.4 0.3 -0.4 l 51 -27.7 c 0.3 -0.2 0.7 0.1 0.7 0.4 v 69.7 c 0 0.3 0.2 0.5 0.5 0.5 h 18 c 0.3 0 0.5 -0.2 0.5 -0.5 v -109 c 0 -0.3 -0.2 -0.5 -0.5 -0.5 h -18 C 463.4 236.6 463.2 236.8 463.2 237.1 z" stroke-linecap="round" />
</g>
		<g transform="matrix(1 0 0 1 -217.25 -4.6)" id="Layer_2"  >
<path style="stroke: rgb(234,169,54); stroke-width: 6; stroke-dasharray: none; stroke-linecap: butt; stroke-dashoffset: 0; stroke-linejoin: miter; stroke-miterlimit: 10; fill: rgb(168,14,2); fill-rule: nonzero; opacity: 1;"  transform=" translate(-549.2, -291.6)" d="M 575.2 237.1 v 35 c 0 0.3 -0.2 0.5 -0.5 0.5 h -51 c -0.3 0 -0.5 -0.2 -0.5 -0.5 v -35 c 0 -0.3 -0.2 -0.5 -0.5 -0.5 h -18 c -0.3 0 -0.5 0.2 -0.5 0.5 v 109 c 0 0.3 0.2 0.5 0.5 0.5 h 18 c 0.3 0 0.5 -0.2 0.5 -0.5 v -54 c 0 -0.3 0.2 -0.5 0.5 -0.5 h 51 c 0.3 0 0.5 0.2 0.5 0.5 v 54 c 0 0.3 0.2 0.5 0.5 0.5 h 18 c 0.3 0 0.5 -0.2 0.5 -0.5 v -109 c 0 -0.3 -0.2 -0.5 -0.5 -0.5 h -18 C 575.4 236.6 575.2 236.8 575.2 237.1 z" stroke-linecap="round" />
</g>
		<g transform="matrix(1 0 0 1 -103.33 -4.28)" id="Layer_2"  >
<path style="stroke: rgb(234,169,54); stroke-width: 6; stroke-dasharray: none; stroke-linecap: butt; stroke-dashoffset: 0; stroke-linejoin: miter; stroke-miterlimit: 10; fill: rgb(168,14,2); fill-rule: nonzero; opacity: 1;"  transform=" translate(-663.12, -291.92)" d="M 692.5 294.7 l -19.9 -43.5 l -6.9 -14.3 c -0.1 -0.2 -0.3 -0.3 -0.5 -0.3 h -19.8 c -0.4 0 -0.6 0.4 -0.5 0.7 l 10.2 21.5 c 0.1 0.2 0 0.5 -0.2 0.6 c -7.6 5 -15.4 11.7 -22.4 20 c -21.2 24.7 -28.3 53.3 -16 63.9 s 39.5 -0.9 60.6 -25.6 c 0.9 -1.1 1.8 -2.1 2.6 -3.2 c 0.2 -0.3 0.7 -0.2 0.8 0.1 l 14.3 32.2 c 0.1 0.2 0.3 0.3 0.5 0.3 l 20 -0.5 c 0.4 0 0.6 -0.4 0.4 -0.7 L 692.5 294.7 z M 667 308.8 c -12.1 14.1 -27.3 20.9 -33.9 15.2 s -2.3 -21.8 9.8 -35.9 c 5.8 -6.8 12.4 -11.9 18.4 -14.8 c 0.3 -0.1 0.6 0 0.7 0.3 l 11.7 25.5 c 0.1 0.2 0.1 0.3 0 0.5 C 671.8 302.7 669.6 305.8 667 308.8 z" stroke-linecap="round" />
</g>
		<g transform="matrix(1 0 0 1 29.91 -4.5)" id="Layer_2"  >
<path style="stroke: rgb(234,169,54); stroke-width: 6; stroke-dasharray: none; stroke-linecap: butt; stroke-dashoffset: 0; stroke-linejoin: miter; stroke-miterlimit: 10; fill: rgb(168,14,2); fill-rule: nonzero; opacity: 1;"  transform=" translate(-796.36, -291.7)" d="M 842.2 260 c 4.1 -6.5 4.8 -20.1 4.9 -22.9 c 0 -0.3 -0.2 -0.5 -0.5 -0.5 h -17.9 c -0.3 0 -0.5 0.2 -0.5 0.5 v 10.2 c -0.4 -0.2 -0.7 -0.5 -1.1 -0.7 c -8.8 -5.8 -19.3 -9.2 -30.7 -9.1 c -29.8 0.2 -54.2 24.8 -54.3 54.5 c -0.1 30.2 24.4 54.8 54.7 54.8 c 26.9 0 49.2 -19.4 53.8 -45 c 0.1 -0.3 -0.2 -0.6 -0.5 -0.6 l -19.6 0.1 c -0.2 0 -0.4 0.1 -0.5 0.4 c -4.3 15 -18.5 25.8 -35 25 c -17.9 -0.9 -32.3 -15.7 -32.8 -33.5 c -0.5 -19.5 15.1 -35.5 34.5 -35.5 c 12.3 0 20.9 5.1 28.7 6.6 C 833.3 265.6 838.9 265.1 842.2 260 z" stroke-linecap="round" />
</g>
		<g transform="matrix(1 0 0 1 134.55 -4.6)" id="Layer_2"  >
<path style="stroke: rgb(234,169,54); stroke-width: 6; stroke-dasharray: none; stroke-linecap: butt; stroke-dashoffset: 0; stroke-linejoin: miter; stroke-miterlimit: 10; fill: rgb(168,14,2); fill-rule: nonzero; opacity: 1;"  transform=" translate(-901, -291.6)" d="M 926.2 237.1 V 255 c 0 0.1 0 0.2 -0.1 0.3 c -1.4 2.2 -20.7 32.6 -34.7 32.6 c -10.6 0 -17.3 -21.1 -20.5 -50.9 c 0 -0.3 -0.2 -0.4 -0.5 -0.4 h -13.1 c -0.3 0 -0.5 0.2 -0.5 0.5 c 1.1 43.7 21.5 70.8 34.6 70.8 c 12.7 0 29.8 -22.5 33.9 -28.1 c 0.3 -0.4 0.9 -0.2 0.9 0.3 v 66 c 0 0.3 0.2 0.5 0.5 0.5 h 18 c 0.3 0 0.5 -0.2 0.5 -0.5 v -109 c 0 -0.3 -0.2 -0.5 -0.5 -0.5 h -18 C 926.4 236.6 926.2 236.8 926.2 237.1 z" stroke-linecap="round" />
</g>
		<g transform="matrix(1 0 0 1 242.27 -4.48)" id="Layer_2"  >
<path style="stroke: rgb(234,169,54); stroke-width: 6; stroke-dasharray: none; stroke-linecap: butt; stroke-dashoffset: 0; stroke-linejoin: miter; stroke-miterlimit: 10; fill: rgb(168,14,2); fill-rule: nonzero; opacity: 1;"  transform=" translate(-1008.72, -291.72)" d="M 1038.1 294.5 l -19.9 -43.5 l -6.9 -14.3 c -0.1 -0.2 -0.3 -0.3 -0.5 -0.3 H 991 c -0.4 0 -0.6 0.4 -0.5 0.7 l 10.2 21.5 c 0.1 0.2 0 0.5 -0.2 0.6 c -7.6 5 -15.4 11.7 -22.4 20 c -21.2 24.7 -28.3 53.3 -16 63.9 s 39.5 -0.9 60.6 -25.6 c 0.9 -1.1 1.8 -2.1 2.6 -3.2 c 0.2 -0.3 0.7 -0.2 0.8 0.1 l 14.3 32.2 c 0.1 0.2 0.3 0.3 0.5 0.3 l 20 -0.5 c 0.4 0 0.6 -0.4 0.4 -0.7 L 1038.1 294.5 z M 1012.6 308.6 c -12.1 14.1 -27.3 20.9 -33.9 15.2 s -2.3 -21.8 9.8 -35.9 c 5.8 -6.8 12.4 -11.9 18.4 -14.8 c 0.3 -0.1 0.6 0 0.7 0.3 l 11.7 25.5 c 0.1 0.2 0.1 0.3 0 0.5 C 1017.4 302.5 1015.2 305.6 1012.6 308.6 z" stroke-linecap="round" />
</g>
		<g transform="matrix(1 0 0 1 338.7 -5.05)" id="Layer_2"  >
<path style="stroke: rgb(234,169,54); stroke-width: 6; stroke-dasharray: none; stroke-linecap: butt; stroke-dashoffset: 0; stroke-linejoin: miter; stroke-miterlimit: 10; fill: rgb(168,14,2); fill-rule: nonzero; opacity: 1;"  transform=" translate(-1105.15, -291.15)" d="M 1150.9 259.4 c 4.1 -6.5 4.8 -20.1 4.9 -22.9 c 0 -0.3 -0.2 -0.5 -0.5 -0.5 h -17.9 c -0.3 0 -0.5 0.2 -0.5 0.5 v 10.2 c -0.4 -0.2 -0.7 -0.5 -1.1 -0.7 c -15 -10 -35.1 -12.8 -55.5 -3.4 c -10.5 4.8 -18.9 13.2 -23.7 23.7 c -18.5 40.5 10.6 80 49 80 c 26.9 0 49.2 -19.4 53.8 -45 c 0.1 -0.3 -0.2 -0.6 -0.5 -0.6 l -19.6 0.1 c -0.2 0 -0.4 0.1 -0.5 0.4 c -5.6 19.3 -27.5 31.7 -49.8 21.1 c -6.5 -3.1 -11.5 -8.4 -14.5 -14.9 c -11.5 -25.5 6.9 -50.3 31.1 -50.3 c 12.3 0 20.9 5.1 28.7 6.6 C 1142 265 1147.7 264.5 1150.9 259.4 z" stroke-linecap="round" />
</g>
		<g transform="matrix(1 0 0 1 445.25 -5.1)" id="Layer_2"  >
<path style="stroke: rgb(234,169,54); stroke-width: 6; stroke-dasharray: none; stroke-linecap: butt; stroke-dashoffset: 0; stroke-linejoin: miter; stroke-miterlimit: 10; fill: rgb(168,14,2); fill-rule: nonzero; opacity: 1;"  transform=" translate(-1211.7, -291.1)" d="M 1242.2 235.6 L 1242.2 235.6 h -21 l 0 0 h -19 l 0 0 h -21 h -18.5 c -0.3 0 -0.5 0.2 -0.5 0.5 v 18.7 v 17.3 c 0 0.3 0.2 0.5 0.5 0.5 h 18 c 0.3 0 0.5 -0.2 0.5 -0.5 v -17 c 0 -0.3 0.2 -0.5 0.5 -0.5 h 20 c 0.3 0 0.5 0.2 0.5 0.5 v 91 c 0 0.3 0.2 0.5 0.5 0.5 h 18 c 0.3 0 0.5 -0.2 0.5 -0.5 v -91 c 0 -0.3 0.2 -0.5 0.5 -0.5 h 20 c 0.3 0 0.5 0.2 0.5 0.5 v 17 c 0 0.3 0.2 0.5 0.5 0.5 h 18 c 0.3 0 0.5 -0.2 0.5 -0.5 v -17.3 v -19 v -0.2 H 1242.2 z" stroke-linecap="round" />
</g>
		<g transform="matrix(1 0 0 1 550.85 -5)" id="Layer_2"  >
<path style="stroke: rgb(234,169,54); stroke-width: 6; stroke-dasharray: none; stroke-linecap: butt; stroke-dashoffset: 0; stroke-linejoin: miter; stroke-miterlimit: 10; fill: rgb(168,14,2); fill-rule: nonzero; opacity: 1;"  transform=" translate(-1317.3, -291.2)" d="M 1360.9 346.5 c 0.3 0 0.5 -0.2 0.5 -0.5 c -1.1 -44 -21.4 -72.7 -34.5 -72.7 c -12.7 0 -29.7 22.4 -33.8 28.1 c -0.3 0.4 -0.9 0.2 -0.9 -0.3 v -64.9 c 0 -0.3 -0.2 -0.5 -0.5 -0.5 h -18 c -0.3 0 -0.5 0.2 -0.5 0.5 v 91.8 v 18.2 c 0 0.3 0.2 0.5 0.5 0.5 L 1360.9 346.5 z M 1292.2 326.1 c 0 -0.1 0 -0.2 0.1 -0.3 c 1.3 -2.2 20.6 -32.7 34.6 -32.7 c 8.3 0 14.6 14.2 18.6 33.9 c 0.1 0.3 -0.2 0.6 -0.5 0.6 h -52.3 c -0.3 0 -0.5 -0.2 -0.5 -0.5 V 326.1 z" stroke-linecap="round" />
</g>
		<g transform="matrix(1 0 0 1 649.01 -4.94)" id="Layer_2"  >
<path style="stroke: rgb(234,169,54); stroke-width: 6; stroke-dasharray: none; stroke-linecap: butt; stroke-dashoffset: 0; stroke-linejoin: miter; stroke-miterlimit: 10; fill: rgb(168,14,2); fill-rule: nonzero; opacity: 1;"  transform=" translate(-1415.46, -291.26)" d="M 1443.2 236.1 v 19.2 c 0 0.4 -0.5 0.7 -0.8 0.4 c -1.1 -1 -2.5 -1.9 -3.8 -2.8 c -23.3 -17.1 -49.4 -22 -58.4 -10.8 c -8.7 10.7 1.6 32.3 23 49.2 c 0.2 0.2 0.3 0.4 0.1 0.7 l -34.5 53.9 c -0.2 0.3 0 0.8 0.4 0.8 h 22.1 c 0.2 0 0.3 -0.1 0.4 -0.2 l 27.7 -44.1 c 0.1 -0.2 0.4 -0.3 0.6 -0.2 c 8 4.1 15.9 6.7 22.8 7.7 c 0.2 0 0.4 0.2 0.4 0.5 v 35.9 c 0 0.3 0.2 0.5 0.5 0.5 h 18 c 0.3 0 0.5 -0.2 0.5 -0.5 v -39.5 v -29.1 v -41.4 c 0 -0.3 -0.2 -0.5 -0.5 -0.5 h -18 C 1443.4 235.6 1443.2 235.8 1443.2 236.1 z M 1443.2 290.8 c 0 0.2 -0.1 0.3 -0.2 0.4 c -6.1 4.1 -18.9 1.1 -30.6 -7.5 c -12.9 -9.5 -19.3 -22.2 -14.3 -28.4 c 5 -6.2 19.4 -3.5 32.3 6 c 5.6 4.1 9.7 8.9 12.7 13.4 c 0.1 0.1 0.1 0.2 0.1 0.3 V 290.8 z" stroke-linecap="round" />
</g>
</g>
</g>
</svg>