<?xml version="1.0" encoding="UTF-8" standalone="no" ?>
<!DOCTYPE svg PUBLIC "-//W3C//DTD SVG 1.1//EN" "http://www.w3.org/Graphics/SVG/1.1/DTD/svg11.dtd">
<svg xmlns="http://www.w3.org/2000/svg" xmlns:xlink="http://www.w3.org/1999/xlink" version="1.1" width="710" height="710" viewBox="0 0 710 710" xml:space="preserve">
<desc>Created with Fabric.js 3.6.6</desc>
<defs>
</defs>
<g transform="matrix(1 0 0 1 354 351)"  >
<g style=""   >
		<g transform="matrix(1 0 0 1 -235.91 -84.46)" id="Layer_2"  >
<path style="stroke: rgb(234,169,54); stroke-width: 10; stroke-dasharray: none; stroke-linecap: butt; stroke-dashoffset: 0; stroke-linejoin: miter; stroke-miterlimit: 10; fill: rgb(63,24,11); fill-rule: nonzero; opacity: 1;"  transform=" translate(-214.09, -365.54)" d="M 102.1 324.9 c -0.2 0.1 -0.5 -0.2 -0.4 -0.5 c 9.4 -26 39.7 -21.7 46 -18.8 c 18.6 8.8 23.4 35 46.8 40.8 c 23.5 5.8 48.9 -9.7 73.9 -5.9 C 306.3 346.4 320 372 320 372 l 6.5 15 c 0 0 -0.5 22.5 -6 31.5 s -27.5 6.5 -33.5 9 s -7.7 -20.5 -33 -31.2 c -22.7 -9.6 -35.5 1.7 -64.5 -8.3 s -36.3 -48 -46.7 -57.5 C 130.3 319 116 317.3 102.1 324.9 z" stroke-linecap="round" />
</g>
		<g transform="matrix(1 0 0 1 235.11 92.61)" id="Layer_2"  >
<path style="stroke: rgb(234,169,54); stroke-width: 10; stroke-dasharray: none; stroke-linecap: butt; stroke-dashoffset: 0; stroke-linejoin: miter; stroke-miterlimit: 10; fill: rgb(63,24,11); fill-rule: nonzero; opacity: 1;"  transform=" translate(-685.11, -542.61)" d="M 797.1 583.2 c 0.2 -0.1 0.5 0.2 0.4 0.5 c -9.4 26 -39.7 21.7 -46 18.8 c -18.6 -8.8 -23.4 -35 -46.8 -40.8 c -23.5 -5.8 -48.9 9.7 -73.9 5.9 c -37.9 -5.8 -51.6 -31.4 -51.6 -31.4 l -6.5 -15 c 0 0 0.5 -22.5 6 -31.5 s 27.5 -6.5 33.5 -9 s 7.7 20.5 33 31.2 c 22.7 9.6 35.5 -1.7 64.5 8.3 s 36.3 48 46.7 57.5 C 768.8 589.1 783.2 590.8 797.1 583.2 z" stroke-linecap="round" />
</g>
		<g transform="matrix(1 0 0 1 -88.91 239.51)" id="Layer_2"  >
<path style="stroke: rgb(234,169,54); stroke-width: 10; stroke-dasharray: none; stroke-linecap: butt; stroke-dashoffset: 0; stroke-linejoin: miter; stroke-miterlimit: 10; fill: rgb(63,24,11); fill-rule: nonzero; opacity: 1;"  transform=" translate(-361.09, -689.51)" d="M 320.5 801.5 c 0.1 0.2 -0.2 0.5 -0.5 0.4 c -26 -9.4 -21.7 -39.7 -18.8 -46 c 8.8 -18.6 35 -23.4 40.8 -46.8 c 5.8 -23.5 -9.7 -48.9 -5.9 -73.9 c 5.8 -37.9 31.4 -51.6 31.4 -51.6 l 15 -6.5 c 0 0 22.5 0.5 31.5 6 s 6.5 27.5 9 33.5 s -20.5 7.7 -31.2 33 c -9.6 22.7 1.7 35.5 -8.3 64.5 s -48 36.3 -57.5 46.7 C 314.5 773.3 312.9 787.6 320.5 801.5 z" stroke-linecap="round" />
</g>
		<g transform="matrix(1 0 0 1 88.11 -231.41)" id="Layer_2"  >
<path style="stroke: rgb(234,169,54); stroke-width: 10; stroke-dasharray: none; stroke-linecap: butt; stroke-dashoffset: 0; stroke-linejoin: miter; stroke-miterlimit: 10; fill: rgb(63,24,11); fill-rule: nonzero; opacity: 1;"  transform=" translate(-538.11, -218.59)" d="M 578.7 106.6 c -0.1 -0.2 0.2 -0.5 0.5 -0.4 c 26 9.4 21.7 39.7 18.8 46 c -8.8 18.6 -35 23.4 -40.8 46.8 c -5.8 23.5 9.7 48.9 5.9 73.9 c -5.8 37.9 -31.4 51.6 -31.4 51.6 l -15 6.5 c 0 0 -22.5 -0.5 -31.5 -6 s -6.5 -27.5 -9 -33.5 s 20.5 -7.7 31.2 -33 c 9.6 -22.7 -1.7 -35.5 8.3 -64.5 c 10 -29 48 -36.3 57.5 -46.7 C 584.6 134.8 586.3 120.5 578.7 106.6 z" stroke-linecap="round" />
</g>
		<g transform="matrix(1 0 0 1 -93.73 -224.56)" id="Layer_2"  >
<path style="stroke: rgb(234,169,54); stroke-width: 10; stroke-dasharray: none; stroke-linecap: butt; stroke-dashoffset: 0; stroke-linejoin: miter; stroke-miterlimit: 10; fill: rgb(63,24,11); fill-rule: nonzero; opacity: 1;"  transform=" translate(-356.27, -225.44)" d="M 295.2 116.9 c -0.3 -0.1 -0.2 -0.5 0.1 -0.6 c 25.1 -11.8 43.4 12.7 45.8 19.2 c 6.9 19.3 -8.2 41.3 4.2 62 c 12.5 20.7 41.5 27.7 56.4 48.1 c 22.7 30.9 14.3 58.7 14.3 58.7 l -6 15.2 c 0 0 -16.3 15.6 -26.5 18 c -10.3 2.5 -24 -14.8 -30.1 -17.3 s 9.1 -19.9 -1.3 -45.4 c -9.3 -22.8 -26.3 -23.9 -39.7 -51.5 s 8.3 -59.6 7.7 -73.7 C 319.3 132.7 310.4 121.4 295.2 116.9 z" stroke-linecap="round" />
</g>
		<g transform="matrix(1 0 0 1 93.23 232.46)" id="Layer_2"  >
<path style="stroke: rgb(234,169,54); stroke-width: 10; stroke-dasharray: none; stroke-linecap: butt; stroke-dashoffset: 0; stroke-linejoin: miter; stroke-miterlimit: 10; fill: rgb(63,24,11); fill-rule: nonzero; opacity: 1;"  transform=" translate(-543.23, -682.46)" d="M 604.3 791 c 0.3 0.1 0.2 0.5 -0.1 0.6 c -25.1 11.8 -43.4 -12.7 -45.8 -19.2 c -6.9 -19.3 8.2 -41.3 -4.2 -62 c -12.5 -20.7 -41.5 -27.7 -56.4 -48.1 c -22.7 -30.9 -14.3 -58.7 -14.3 -58.7 l 6 -15.2 c 0 0 16.3 -15.6 26.5 -18 c 10.3 -2.5 24 14.8 30.1 17.3 c 6 2.5 -9.1 19.9 1.3 45.4 c 9.3 22.8 26.3 23.9 39.7 51.5 c 13.4 27.6 -8.3 59.6 -7.7 73.7 C 580.2 775.2 589.1 786.5 604.3 791 z" stroke-linecap="round" />
</g>
		<g transform="matrix(1 0 0 1 -228.76 97.43)" id="Layer_2"  >
<path style="stroke: rgb(234,169,54); stroke-width: 10; stroke-dasharray: none; stroke-linecap: butt; stroke-dashoffset: 0; stroke-linejoin: miter; stroke-miterlimit: 10; fill: rgb(63,24,11); fill-rule: nonzero; opacity: 1;"  transform=" translate(-221.24, -547.43)" d="M 112.7 608.5 c -0.1 0.3 -0.5 0.2 -0.6 -0.1 c -11.8 -25.1 12.7 -43.4 19.2 -45.8 c 19.3 -6.9 41.3 8.2 62 -4.2 c 20.7 -12.5 27.7 -41.5 48.1 -56.4 c 30.9 -22.7 58.7 -14.3 58.7 -14.3 l 15.2 6 c 0 0 15.6 16.3 18 26.5 c 2.5 10.3 -14.8 24 -17.3 30.1 c -2.5 6 -19.9 -9.1 -45.4 1.3 c -22.8 9.3 -23.9 26.3 -51.5 39.7 c -27.6 13.4 -59.6 -8.3 -73.7 -7.7 C 128.5 584.3 117.2 593.3 112.7 608.5 z" stroke-linecap="round" />
</g>
		<g transform="matrix(1 0 0 1 228.26 -89.63)" id="Layer_2"  >
<path style="stroke: rgb(234,169,54); stroke-width: 10; stroke-dasharray: none; stroke-linecap: butt; stroke-dashoffset: 0; stroke-linejoin: miter; stroke-miterlimit: 10; fill: rgb(63,24,11); fill-rule: nonzero; opacity: 1;"  transform=" translate(-678.26, -360.37)" d="M 786.8 299.3 c 0.1 -0.3 0.5 -0.2 0.6 0.1 c 11.8 25.1 -12.7 43.4 -19.2 45.8 c -19.3 6.9 -41.3 -8.2 -62 4.2 c -20.7 12.5 -27.7 41.5 -48.1 56.4 c -30.9 22.7 -58.7 14.3 -58.7 14.3 l -15.2 -6 c 0 0 -15.6 -16.3 -18 -26.5 c -2.5 -10.3 14.8 -24 17.3 -30.1 s 19.9 9.1 45.4 -1.3 c 22.8 -9.3 23.9 -26.3 51.5 -39.7 c 27.6 -13.4 59.6 8.3 73.7 7.7 C 771 323.5 782.3 314.5 786.8 299.3 z" stroke-linecap="round" />
</g>
		<g transform="matrix(1 0 0 1 -223.25 -97.4)" id="Layer_2"  >
<path style="stroke: rgb(234,169,54); stroke-width: 10; stroke-dasharray: none; stroke-linecap: butt; stroke-dashoffset: 0; stroke-linejoin: miter; stroke-miterlimit: 10; fill: none; fill-rule: nonzero; opacity: 1;"  transform=" translate(-226.75, -352.6)" d="M 162.8 318.8 c 0 24.8 15.4 40.9 34.2 46.8 c 16.7 5.2 39.8 -0.8 59.3 3.1 c 15 3 28.1 15.1 34.4 17.7" stroke-linecap="round" />
</g>
		<g transform="matrix(1 0 0 1 222.45 105.5)" id="Layer_2"  >
<path style="stroke: rgb(234,169,54); stroke-width: 10; stroke-dasharray: none; stroke-linecap: butt; stroke-dashoffset: 0; stroke-linejoin: miter; stroke-miterlimit: 10; fill: none; fill-rule: nonzero; opacity: 1;"  transform=" translate(-672.45, -555.5)" d="M 736.4 589.3 c 0 -24.8 -15.4 -40.9 -34.2 -46.8 c -16.7 -5.2 -39.8 0.8 -59.3 -3.1 c -15 -3 -28.1 -15.1 -34.4 -17.7" stroke-linecap="round" />
</g>
		<g transform="matrix(1 0 0 1 -101.9 226.95)" id="Layer_2"  >
<path style="stroke: rgb(234,169,54); stroke-width: 10; stroke-dasharray: none; stroke-linecap: butt; stroke-dashoffset: 0; stroke-linejoin: miter; stroke-miterlimit: 10; fill: none; fill-rule: nonzero; opacity: 1;"  transform=" translate(-348.1, -676.95)" d="M 314.3 740.9 c 24.8 0 40.9 -15.4 46.8 -34.2 c 5.2 -16.7 -0.8 -39.8 3.1 -59.3 c 3 -15 15.1 -28.1 17.7 -34.4" stroke-linecap="round" />
</g>
		<g transform="matrix(1 0 0 1 101.1 -218.85)" id="Layer_2"  >
<path style="stroke: rgb(234,169,54); stroke-width: 10; stroke-dasharray: none; stroke-linecap: butt; stroke-dashoffset: 0; stroke-linejoin: miter; stroke-miterlimit: 10; fill: none; fill-rule: nonzero; opacity: 1;"  transform=" translate(-551.1, -231.15)" d="M 584.9 167.2 c -24.8 0 -40.9 15.4 -46.8 34.2 c -5.2 16.7 0.8 39.8 -3.1 59.3 c -3 15 -15.1 28.1 -17.7 34.4" stroke-linecap="round" />
</g>
		<g transform="matrix(1 0 0 1 -97.73 -239.7)" id="Layer_2"  >
<path style="stroke: rgb(234,169,54); stroke-width: 10; stroke-dasharray: none; stroke-linecap: butt; stroke-dashoffset: 0; stroke-linejoin: miter; stroke-miterlimit: 10; fill: none; fill-rule: nonzero; opacity: 1;"  transform=" translate(-352.27, -210.3)" d="M 313.4 129 c 25.6 24 3.9 66.4 20.1 92 c 13.5 21.3 27.5 19.3 43.7 33 c 18.9 15.9 13.1 37.6 13.1 37.6" stroke-linecap="round" />
</g>
		<g transform="matrix(1 0 0 1 97.23 247.5)" id="Layer_2"  >
<path style="stroke: rgb(234,169,54); stroke-width: 10; stroke-dasharray: none; stroke-linecap: butt; stroke-dashoffset: 0; stroke-linejoin: miter; stroke-miterlimit: 10; fill: none; fill-rule: nonzero; opacity: 1;"  transform=" translate(-547.23, -697.5)" d="M 586.1 778.8 c -25.6 -24 -3.9 -66.4 -20.1 -92 c -13.5 -21.3 -27.5 -19.3 -43.7 -33 c -18.9 -15.9 -13.1 -37.6 -13.1 -37.6" stroke-linecap="round" />
</g>
		<g transform="matrix(1 0 0 1 -243.8 101.43)" id="Layer_2"  >
<path style="stroke: rgb(234,169,54); stroke-width: 10; stroke-dasharray: none; stroke-linecap: butt; stroke-dashoffset: 0; stroke-linejoin: miter; stroke-miterlimit: 10; fill: none; fill-rule: nonzero; opacity: 1;"  transform=" translate(-206.2, -551.43)" d="M 124.9 590.3 c 24 -25.6 66.4 -3.9 92 -20.1 c 21.3 -13.5 19.3 -27.5 33 -43.7 c 15.9 -18.9 37.6 -13.1 37.6 -13.1" stroke-linecap="round" />
</g>
		<g transform="matrix(1 0 0 1 243.4 -93.63)" id="Layer_2"  >
<path style="stroke: rgb(234,169,54); stroke-width: 10; stroke-dasharray: none; stroke-linecap: butt; stroke-dashoffset: 0; stroke-linejoin: miter; stroke-miterlimit: 10; fill: none; fill-rule: nonzero; opacity: 1;"  transform=" translate(-693.4, -356.37)" d="M 774.7 317.5 c -24 25.6 -66.4 3.9 -92 20.1 c -21.3 13.5 -19.3 27.5 -33 43.7 c -15.9 18.9 -37.6 13.1 -37.6 13.1" stroke-linecap="round" />
</g>
		<g transform="matrix(1 0 0 1 0.05 3.97)" id="Layer_2"  >
<path style="stroke: rgb(234,169,54); stroke-width: 10; stroke-dasharray: none; stroke-linecap: butt; stroke-dashoffset: 0; stroke-linejoin: miter; stroke-miterlimit: 10; fill: rgb(63,24,11); fill-rule: nonzero; opacity: 1;"  transform=" translate(-450.05, -453.97)" d="M 450.5 105.3 l 50.6 224.1 c 0.1 0.4 0.5 0.5 0.8 0.3 l 194.3 -122.7 c 0.5 -0.3 1 0.3 0.7 0.7 L 574.3 402.1 c -0.2 0.3 0 0.7 0.3 0.8 l 224.1 50.6 c 0.5 0.1 0.5 0.9 0 1 l -224.1 50.6 c -0.4 0.1 -0.5 0.5 -0.3 0.8 l 122.7 194.3 c 0.3 0.5 -0.3 1 -0.7 0.7 L 501.9 578.3 c -0.3 -0.2 -0.7 0 -0.8 0.3 l -50.6 224.1 c -0.1 0.5 -0.9 0.5 -1 0 l -50.6 -224.1 c -0.1 -0.4 -0.5 -0.5 -0.8 -0.3 L 203.8 700.9 c -0.5 0.3 -1 -0.3 -0.7 -0.7 l 122.7 -194.3 c 0.2 -0.3 0 -0.7 -0.3 -0.8 l -224.1 -50.6 c -0.5 -0.1 -0.5 -0.9 0 -1 l 224.1 -50.6 c 0.4 -0.1 0.5 -0.5 0.3 -0.8 L 203.1 207.8 c -0.3 -0.5 0.3 -1 0.7 -0.7 l 194.3 122.7 c 0.3 0.2 0.7 0 0.8 -0.3 l 50.6 -224.1 C 449.6 104.7 450.4 104.7 450.5 105.3 z" stroke-linecap="round" />
</g>
		<g transform="matrix(1 0 0 1 0 4)" id="Layer_2"  >
<line style="stroke: rgb(234,169,54); stroke-width: 10; stroke-dasharray: none; stroke-linecap: butt; stroke-dashoffset: 0; stroke-linejoin: miter; stroke-miterlimit: 10; fill: rgb(63,24,11); fill-rule: nonzero; opacity: 1;"  x1="0" y1="-332.9" x2="0" y2="332.9" />
</g>
		<g transform="matrix(1 0 0 1 0 4)" id="Layer_2"  >
<line style="stroke: rgb(234,169,54); stroke-width: 10; stroke-dasharray: none; stroke-linecap: butt; stroke-dashoffset: 0; stroke-linejoin: miter; stroke-miterlimit: 10; fill: rgb(63,24,11); fill-rule: nonzero; opacity: 1;"  x1="-332.9" y1="0" x2="332.9" y2="0" />
</g>
		<g transform="matrix(1 0 0 1 0 4)" id="Layer_2"  >
<line style="stroke: rgb(234,169,54); stroke-width: 10; stroke-dasharray: none; stroke-linecap: butt; stroke-dashoffset: 0; stroke-linejoin: miter; stroke-miterlimit: 10; fill: rgb(63,24,11); fill-rule: nonzero; opacity: 1;"  x1="235.39999999999998" y1="-235.39999999999998" x2="-235.39999999999998" y2="235.39999999999998" />
</g>
		<g transform="matrix(1 0 0 1 0 4)" id="Layer_2"  >
<line style="stroke: rgb(234,169,54); stroke-width: 10; stroke-dasharray: none; stroke-linecap: butt; stroke-dashoffset: 0; stroke-linejoin: miter; stroke-miterlimit: 10; fill: rgb(63,24,11); fill-rule: nonzero; opacity: 1;"  x1="-235.39999999999998" y1="-235.39999999999998" x2="235.39999999999998" y2="235.39999999999998" />
</g>
		<g transform="matrix(1 0 0 1 0 4)" id="Layer_2"  >
<circle style="stroke: rgb(234,169,54); stroke-width: 10; stroke-dasharray: none; stroke-linecap: butt; stroke-dashoffset: 0; stroke-linejoin: miter; stroke-miterlimit: 10; fill: rgb(63,24,11); fill-rule: nonzero; opacity: 1;"  cx="0" cy="0" r="173" />
</g>
</g>
</g>
</svg>