<?xml version="1.0" encoding="UTF-8" standalone="no" ?>
<!DOCTYPE svg PUBLIC "-//W3C//DTD SVG 1.1//EN" "http://www.w3.org/Graphics/SVG/1.1/DTD/svg11.dtd">
<svg xmlns="http://www.w3.org/2000/svg" xmlns:xlink="http://www.w3.org/1999/xlink" version="1.1" width="720" height="360" viewBox="0 0 720 360" xml:space="preserve">
<desc>Created with Fabric.js 3.6.6</desc>
<defs>
</defs>
<g transform="matrix(1 0 0 1 350 360)"  >
<g style=""   >
		<g transform="matrix(1 0 0 1 -231.91 -94.46)" id="Layer_1"  >
<path style="stroke: rgb(234,169,54); stroke-width: 10; stroke-dasharray: none; stroke-linecap: butt; stroke-dashoffset: 0; stroke-linejoin: miter; stroke-miterlimit: 10; fill: rgb(63,24,11); fill-rule: nonzero; opacity: 1;"  transform=" translate(-218.09, -355.54)" d="M 106.1 314.9 c -0.2 0.1 -0.5 -0.2 -0.4 -0.5 c 9.4 -26 39.7 -21.7 46 -18.8 c 18.6 8.8 23.4 35 46.8 40.8 c 23.5 5.8 48.9 -9.7 73.9 -5.9 C 310.3 336.4 324 362 324 362 l 6.5 15 c 0 0 -0.5 22.5 -6 31.5 s -27.5 6.5 -33.5 9 s -7.7 -20.5 -33 -31.2 c -22.7 -9.6 -35.5 1.7 -64.5 -8.3 s -36.3 -48 -46.7 -57.5 C 134.3 309 120 307.3 106.1 314.9 z" stroke-linecap="round" />
</g>
		<g transform="matrix(1 0 0 1 92.11 -241.41)" id="Layer_1"  >
<path style="stroke: rgb(234,169,54); stroke-width: 10; stroke-dasharray: none; stroke-linecap: butt; stroke-dashoffset: 0; stroke-linejoin: miter; stroke-miterlimit: 10; fill: rgb(63,24,11); fill-rule: nonzero; opacity: 1;"  transform=" translate(-542.11, -208.59)" d="M 582.7 96.6 c -0.1 -0.2 0.2 -0.5 0.5 -0.4 c 26 9.4 21.7 39.7 18.8 46 c -8.8 18.6 -35 23.4 -40.8 46.8 c -5.8 23.5 9.7 48.9 5.9 73.9 c -5.8 37.9 -31.4 51.6 -31.4 51.6 l -15 6.5 c 0 0 -22.5 -0.5 -31.5 -6 s -6.5 -27.5 -9 -33.5 s 20.5 -7.7 31.2 -33 c 9.6 -22.7 -1.7 -35.5 8.3 -64.5 c 10 -29 48 -36.3 57.5 -46.7 C 588.6 124.8 590.3 110.5 582.7 96.6 z" stroke-linecap="round" />
</g>
		<g transform="matrix(1 0 0 1 -89.73 -234.56)" id="Layer_1"  >
<path style="stroke: rgb(234,169,54); stroke-width: 10; stroke-dasharray: none; stroke-linecap: butt; stroke-dashoffset: 0; stroke-linejoin: miter; stroke-miterlimit: 10; fill: rgb(63,24,11); fill-rule: nonzero; opacity: 1;"  transform=" translate(-360.27, -215.44)" d="M 299.2 106.9 c -0.3 -0.1 -0.2 -0.5 0.1 -0.6 c 25.1 -11.8 43.4 12.7 45.8 19.2 c 6.9 19.3 -8.2 41.3 4.2 62 c 12.5 20.7 41.5 27.7 56.4 48.1 c 22.7 30.9 14.3 58.7 14.3 58.7 l -6 15.2 c 0 0 -16.3 15.6 -26.5 18 c -10.3 2.5 -24 -14.8 -30.1 -17.3 s 9.1 -19.9 -1.3 -45.4 c -9.3 -22.8 -26.3 -23.9 -39.7 -51.5 s 8.3 -59.6 7.7 -73.7 C 323.3 122.7 314.4 111.4 299.2 106.9 z" stroke-linecap="round" />
</g>
		<g transform="matrix(1 0 0 1 232.26 -99.63)" id="Layer_1"  >
<path style="stroke: rgb(234,169,54); stroke-width: 10; stroke-dasharray: none; stroke-linecap: butt; stroke-dashoffset: 0; stroke-linejoin: miter; stroke-miterlimit: 10; fill: rgb(63,24,11); fill-rule: nonzero; opacity: 1;"  transform=" translate(-682.26, -350.37)" d="M 790.8 289.3 c 0.1 -0.3 0.5 -0.2 0.6 0.1 c 11.8 25.1 -12.7 43.4 -19.2 45.8 c -19.3 6.9 -41.3 -8.2 -62 4.2 c -20.7 12.5 -27.7 41.5 -48.1 56.4 c -30.9 22.7 -58.7 14.3 -58.7 14.3 l -15.2 -6 c 0 0 -15.6 -16.3 -18 -26.5 c -2.5 -10.3 14.8 -24 17.3 -30.1 s 19.9 9.1 45.4 -1.3 c 22.8 -9.3 23.9 -26.3 51.5 -39.7 c 27.6 -13.4 59.6 8.3 73.7 7.7 C 775 313.5 786.3 304.5 790.8 289.3 z" stroke-linecap="round" />
</g>
		<g transform="matrix(1 0 0 1 -219.25 -107.4)" id="Layer_1"  >
<path style="stroke: rgb(234,169,54); stroke-width: 10; stroke-dasharray: none; stroke-linecap: butt; stroke-dashoffset: 0; stroke-linejoin: miter; stroke-miterlimit: 10; fill: none; fill-rule: nonzero; opacity: 1;"  transform=" translate(-230.75, -342.6)" d="M 166.8 308.8 c 0 24.8 15.4 40.9 34.2 46.8 c 16.7 5.2 39.8 -0.8 59.3 3.1 c 15 3 28.1 15.1 34.4 17.7" stroke-linecap="round" />
</g>
		<g transform="matrix(1 0 0 1 105.1 -228.85)" id="Layer_1"  >
<path style="stroke: rgb(234,169,54); stroke-width: 10; stroke-dasharray: none; stroke-linecap: butt; stroke-dashoffset: 0; stroke-linejoin: miter; stroke-miterlimit: 10; fill: none; fill-rule: nonzero; opacity: 1;"  transform=" translate(-555.1, -221.15)" d="M 588.9 157.2 c -24.8 0 -40.9 15.4 -46.8 34.2 c -5.2 16.7 0.8 39.8 -3.1 59.3 c -3 15 -15.1 28.1 -17.7 34.4" stroke-linecap="round" />
</g>
		<g transform="matrix(1 0 0 1 -93.73 -249.7)" id="Layer_1"  >
<path style="stroke: rgb(234,169,54); stroke-width: 10; stroke-dasharray: none; stroke-linecap: butt; stroke-dashoffset: 0; stroke-linejoin: miter; stroke-miterlimit: 10; fill: none; fill-rule: nonzero; opacity: 1;"  transform=" translate(-356.27, -200.3)" d="M 317.4 119 c 25.6 24 3.9 66.4 20.1 92 c 13.5 21.3 27.5 19.3 43.7 33 c 18.9 15.9 13.1 37.6 13.1 37.6" stroke-linecap="round" />
</g>
		<g transform="matrix(1 0 0 1 247.4 -103.63)" id="Layer_1"  >
<path style="stroke: rgb(234,169,54); stroke-width: 10; stroke-dasharray: none; stroke-linecap: butt; stroke-dashoffset: 0; stroke-linejoin: miter; stroke-miterlimit: 10; fill: none; fill-rule: nonzero; opacity: 1;"  transform=" translate(-697.4, -346.37)" d="M 778.7 307.5 c -24 25.6 -66.4 3.9 -92 20.1 c -21.3 13.5 -19.3 27.5 -33 43.7 c -15.9 18.9 -37.6 13.1 -37.6 13.1" stroke-linecap="round" />
</g>
		<g transform="matrix(1 0 0 1 -1117 332.9)" id="Layer_1"  >
<path style="stroke: rgb(234,169,54); stroke-width: 10; stroke-dasharray: none; stroke-linecap: butt; stroke-dashoffset: 0; stroke-linejoin: miter; stroke-miterlimit: 10; fill: rgb(63,24,11); fill-rule: nonzero; opacity: 1;"  transform=" translate(667, -782.9)" d="M -667 782.9" stroke-linecap="round" />
</g>
		<g transform="matrix(1 0 0 1 -1352.3 235.4)" id="Layer_1"  >
<path style="stroke: rgb(234,169,54); stroke-width: 10; stroke-dasharray: none; stroke-linecap: butt; stroke-dashoffset: 0; stroke-linejoin: miter; stroke-miterlimit: 10; fill: rgb(63,24,11); fill-rule: nonzero; opacity: 1;"  transform=" translate(902.3, -685.4)" d="M -902.3 685.4" stroke-linecap="round" />
</g>
		<g transform="matrix(1 0 0 1 -881.6 235.4)" id="Layer_1"  >
<path style="stroke: rgb(234,169,54); stroke-width: 10; stroke-dasharray: none; stroke-linecap: butt; stroke-dashoffset: 0; stroke-linejoin: miter; stroke-miterlimit: 10; fill: rgb(63,24,11); fill-rule: nonzero; opacity: 1;"  transform=" translate(431.6, -685.4)" d="M -431.6 685.4" stroke-linecap="round" />
</g>
		<g transform="matrix(1 0 0 1 5.15 -180.54)" id="Layer_1"  >
<path style="stroke: rgb(234,169,54); stroke-width: 10; stroke-dasharray: none; stroke-linecap: butt; stroke-dashoffset: 0; stroke-linejoin: miter; stroke-miterlimit: 10; fill: rgb(63,24,11); fill-rule: nonzero; opacity: 1;"  transform=" translate(-455.15, -269.46)" d="M 803.7 443.5 l -224.1 -50.6 c -0.4 -0.1 -0.5 -0.5 -0.3 -0.8 L 702 197.8 c 0.3 -0.5 -0.3 -1 -0.7 -0.7 L 507 319.7 c -0.3 0.2 -0.7 0 -0.8 -0.3 L 455.5 95.3 c -0.1 -0.5 -0.9 -0.5 -1 0 l -50.6 224.1 c -0.1 0.4 -0.5 0.5 -0.8 0.3 L 208.8 197.1 c -0.5 -0.3 -1 0.3 -0.7 0.7 l 122.7 194.3 c 0.2 0.3 0 0.7 -0.3 0.8 l -224.1 50.6 c -0.3 0.1 -0.4 0.3 -0.4 0.5 h 698.3 C 804.2 443.8 804 443.5 803.7 443.5 z" stroke-linecap="round" />
</g>
		<g transform="matrix(1 0 0 1 5 -174)" id="Layer_1"  >
<line style="stroke: rgb(234,169,54); stroke-width: 10; stroke-dasharray: none; stroke-linecap: butt; stroke-dashoffset: 0; stroke-linejoin: miter; stroke-miterlimit: 10; fill: rgb(63,24,11); fill-rule: nonzero; opacity: 1;"  x1="0" y1="-166.39999999999998" x2="0" y2="166.39999999999998" />
</g>
		<g transform="matrix(1 0 0 1 5 -7.6)" id="Layer_1"  >
<polyline style="stroke: rgb(234,169,54); stroke-width: 10; stroke-dasharray: none; stroke-linecap: butt; stroke-dashoffset: 0; stroke-linejoin: miter; stroke-miterlimit: 10; fill: rgb(63,24,11); fill-rule: nonzero; opacity: 1;"  points="-332.9,0 0,0 70.6,0 332.9,0 " />
</g>
		<g transform="matrix(1 0 0 1 122.7 -125.25)" id="Layer_1"  >
<line style="stroke: rgb(234,169,54); stroke-width: 10; stroke-dasharray: none; stroke-linecap: butt; stroke-dashoffset: 0; stroke-linejoin: miter; stroke-miterlimit: 10; fill: rgb(63,24,11); fill-rule: nonzero; opacity: 1;"  x1="117.69999999999999" y1="-117.64999999999999" x2="-117.69999999999999" y2="117.64999999999999" />
</g>
		<g transform="matrix(1 0 0 1 -112.7 -125.25)" id="Layer_1"  >
<line style="stroke: rgb(234,169,54); stroke-width: 10; stroke-dasharray: none; stroke-linecap: butt; stroke-dashoffset: 0; stroke-linejoin: miter; stroke-miterlimit: 10; fill: rgb(63,24,11); fill-rule: nonzero; opacity: 1;"  x1="-117.7" y1="-117.64999999999999" x2="117.7" y2="117.64999999999999" />
</g>
		<g transform="matrix(1 0 0 1 5.1 -94.5)" id="Layer_1"  >
<path style="stroke: rgb(234,169,54); stroke-width: 10; stroke-dasharray: none; stroke-linecap: butt; stroke-dashoffset: 0; stroke-linejoin: miter; stroke-miterlimit: 10; fill: rgb(63,24,11); fill-rule: nonzero; opacity: 1;"  transform=" translate(-455.1, -355.5)" d="M 455.1 269 c -95.5 0 -173 77.5 -173 173 h 346 C 628.1 346.5 550.7 269 455.1 269 z" stroke-linecap="round" />
</g>
</g>
</g>
</svg>