<?xml version="1.0" encoding="UTF-8" standalone="no" ?>
<!DOCTYPE svg PUBLIC "-//W3C//DTD SVG 1.1//EN" "http://www.w3.org/Graphics/SVG/1.1/DTD/svg11.dtd">
<svg xmlns="http://www.w3.org/2000/svg" xmlns:xlink="http://www.w3.org/1999/xlink" version="1.1" width="1560" height="520" viewBox="0 0 1560 520" xml:space="preserve">
<desc>Created with Fabric.js 3.6.6</desc>
<defs>
</defs>
<g transform="matrix(1 0 0 1 780.95 331)"  >
<g style=""   >
		<g transform="matrix(1 0 0 1 -182.11 -115.34)" id="Layer_2"  >
<path style="stroke: rgb(234,169,54); stroke-width: 10; stroke-dasharray: none; stroke-linecap: butt; stroke-dashoffset: 0; stroke-linejoin: miter; stroke-miterlimit: 10; fill: rgb(63,24,11); fill-rule: nonzero; opacity: 1;"  transform=" translate(-657.84, -334.66)" d="M 570.3 303 c -0.2 0.1 -0.4 -0.2 -0.3 -0.4 c 7.4 -20.3 31 -17 35.9 -14.7 c 14.5 6.9 18.3 27.4 36.6 31.9 c 18.4 4.6 38.2 -7.6 57.8 -4.6 c 29.6 4.5 40.3 24.5 40.3 24.5 l 5.1 11.7 c 0 0 -0.4 17.6 -4.7 24.6 c -4.3 7 -21.5 5.1 -26.2 7 c -4.7 2 -6 -16 -25.8 -24.4 c -17.8 -7.5 -27.7 1.3 -50.4 -6.5 c -22.7 -7.8 -28.3 -37.5 -36.5 -45 C 592.4 298.4 581.2 297.1 570.3 303 z" stroke-linecap="round" />
</g>
		<g transform="matrix(1 0 0 1 71.19 -230.16)" id="Layer_2"  >
<path style="stroke: rgb(234,169,54); stroke-width: 10; stroke-dasharray: none; stroke-linecap: butt; stroke-dashoffset: 0; stroke-linejoin: miter; stroke-miterlimit: 10; fill: rgb(63,24,11); fill-rule: nonzero; opacity: 1;"  transform=" translate(-911.14, -219.84)" d="M 942.8 132.3 c -0.1 -0.2 0.2 -0.4 0.4 -0.3 c 20.3 7.4 17 31 14.7 35.9 c -6.9 14.5 -27.4 18.3 -31.9 36.6 c -4.6 18.4 7.6 38.2 4.6 57.8 c -4.5 29.6 -24.5 40.3 -24.5 40.3 l -11.7 5.1 c 0 0 -17.6 -0.4 -24.6 -4.7 c -7 -4.3 -5.1 -21.5 -7 -26.2 c -2 -4.7 16 -6 24.4 -25.8 c 7.5 -17.8 -1.3 -27.7 6.5 -50.4 c 7.8 -22.7 37.5 -28.3 45 -36.5 C 947.4 154.4 948.7 143.2 942.8 132.3 z" stroke-linecap="round" />
</g>
		<g transform="matrix(1 0 0 1 -70.97 -224.84)" id="Layer_2"  >
<path style="stroke: rgb(234,169,54); stroke-width: 10; stroke-dasharray: none; stroke-linecap: butt; stroke-dashoffset: 0; stroke-linejoin: miter; stroke-miterlimit: 10; fill: rgb(63,24,11); fill-rule: nonzero; opacity: 1;"  transform=" translate(-768.98, -225.16)" d="M 721.2 140.4 c -0.2 -0.1 -0.1 -0.4 0.1 -0.5 c 19.6 -9.2 33.9 9.9 35.8 15 c 5.4 15.1 -6.4 32.3 3.3 48.4 c 9.8 16.2 32.4 21.7 44.1 37.6 c 17.7 24.1 11.2 45.8 11.2 45.8 l -4.7 11.9 c 0 0 -12.7 12.2 -20.7 14.1 c -8 1.9 -18.8 -11.6 -23.5 -13.5 c -4.7 -1.9 7.1 -15.6 -1 -35.5 c -7.3 -17.9 -20.5 -18.7 -31 -40.3 s 6.5 -46.5 6 -57.6 C 740.1 152.7 733.1 143.9 721.2 140.4 z" stroke-linecap="round" />
</g>
		<g transform="matrix(1 0 0 1 180.64 -119.25)" id="Layer_2"  >
<path style="stroke: rgb(234,169,54); stroke-width: 10; stroke-dasharray: none; stroke-linecap: butt; stroke-dashoffset: 0; stroke-linejoin: miter; stroke-miterlimit: 10; fill: rgb(63,24,11); fill-rule: nonzero; opacity: 1;"  transform=" translate(-1020.59, -330.75)" d="M 1105.4 283 c 0.1 -0.2 0.4 -0.1 0.5 0.1 c 9.2 19.6 -9.9 33.9 -15 35.8 c -15.1 5.4 -32.3 -6.4 -48.4 3.3 c -16.2 9.8 -21.7 32.4 -37.6 44.1 C 980.7 384 959 377.4 959 377.4 l -11.9 -4.7 c 0 0 -12.2 -12.7 -14.1 -20.7 c -1.9 -8 11.6 -18.8 13.5 -23.5 c 1.9 -4.7 15.6 7.1 35.5 -1 c 17.9 -7.3 18.7 -20.5 40.3 -31 c 21.6 -10.5 46.5 6.5 57.6 6 C 1093.1 301.9 1101.9 294.9 1105.4 283 z" stroke-linecap="round" />
</g>
		<g transform="matrix(1 0 0 1 -172.2 -125.35)" id="Layer_2"  >
<path style="stroke: rgb(234,169,54); stroke-width: 10; stroke-dasharray: none; stroke-linecap: butt; stroke-dashoffset: 0; stroke-linejoin: miter; stroke-miterlimit: 10; fill: none; fill-rule: nonzero; opacity: 1;"  transform=" translate(-667.75, -324.65)" d="M 617.7 298.2 c 0 19.4 12 32 26.8 36.6 c 13 4.1 31.1 -0.6 46.4 2.4 c 11.7 2.3 21.9 11.8 26.9 13.9" stroke-linecap="round" />
</g>
		<g transform="matrix(1 0 0 1 81.2 -220.25)" id="Layer_2"  >
<path style="stroke: rgb(234,169,54); stroke-width: 10; stroke-dasharray: none; stroke-linecap: butt; stroke-dashoffset: 0; stroke-linejoin: miter; stroke-miterlimit: 10; fill: none; fill-rule: nonzero; opacity: 1;"  transform=" translate(-921.15, -229.75)" d="M 947.6 179.7 c -19.4 0 -32 12 -36.6 26.8 c -4.1 13 0.6 31.1 -2.4 46.4 c -2.3 11.7 -11.8 21.9 -13.9 26.9" stroke-linecap="round" />
</g>
		<g transform="matrix(1 0 0 1 -74.18 -236.55)" id="Layer_2"  >
<path style="stroke: rgb(234,169,54); stroke-width: 10; stroke-dasharray: none; stroke-linecap: butt; stroke-dashoffset: 0; stroke-linejoin: miter; stroke-miterlimit: 10; fill: none; fill-rule: nonzero; opacity: 1;"  transform=" translate(-765.77, -213.45)" d="M 735.4 149.9 c 20 18.7 3.1 51.9 15.7 71.9 c 10.5 16.7 21.5 15.1 34.2 25.8 c 14.7 12.4 10.2 29.4 10.2 29.4" stroke-linecap="round" />
</g>
		<g transform="matrix(1 0 0 1 192.4 -122.43)" id="Layer_2"  >
<path style="stroke: rgb(234,169,54); stroke-width: 10; stroke-dasharray: none; stroke-linecap: butt; stroke-dashoffset: 0; stroke-linejoin: miter; stroke-miterlimit: 10; fill: none; fill-rule: nonzero; opacity: 1;"  transform=" translate(-1032.35, -327.57)" d="M 1095.9 297.2 c -18.7 20 -51.9 3.1 -71.9 15.7 c -16.7 10.5 -15.1 21.5 -25.8 34.2 c -12.4 14.7 -29.4 10.2 -29.4 10.2" stroke-linecap="round" />
</g>
		<g transform="matrix(1 0 0 1 3.02 -182.5)" id="Layer_2"  >
<path style="stroke: rgb(234,169,54); stroke-width: 10; stroke-dasharray: none; stroke-linecap: butt; stroke-dashoffset: 0; stroke-linejoin: miter; stroke-miterlimit: 10; fill: rgb(63,24,11); fill-rule: nonzero; opacity: 1;"  transform=" translate(-842.97, -267.5)" d="M 1115.5 403.5 l -175.2 -39.6 c -0.3 -0.1 -0.4 -0.4 -0.3 -0.6 l 95.9 -151.8 c 0.2 -0.4 -0.2 -0.8 -0.6 -0.6 l -151.8 95.9 c -0.2 0.2 -0.6 0 -0.6 -0.3 l -39.6 -175.2 c -0.1 -0.4 -0.7 -0.4 -0.8 0 L 803 306.5 c -0.1 0.3 -0.4 0.4 -0.6 0.3 l -151.8 -95.9 c -0.4 -0.2 -0.8 0.2 -0.6 0.6 l 95.9 151.8 c 0.2 0.2 0 0.6 -0.3 0.6 l -175.2 39.6 c -0.2 0 -0.3 0.5 -0.3 0.5 h 545.7 C 1115.9 404 1115.8 403.6 1115.5 403.5 z" stroke-linecap="round" />
</g>
		<g transform="matrix(1 0 0 1 3.05 -177.45)" id="Layer_2"  >
<line style="stroke: rgb(234,169,54); stroke-width: 10; stroke-dasharray: none; stroke-linecap: butt; stroke-dashoffset: 0; stroke-linejoin: miter; stroke-miterlimit: 10; fill: rgb(63,24,11); fill-rule: nonzero; opacity: 1;"  x1="0" y1="-130.05" x2="0" y2="130.05" />
</g>
		<g transform="matrix(1 0 0 1 3 -47.4)" id="Layer_2"  >
<polyline style="stroke: rgb(234,169,54); stroke-width: 10; stroke-dasharray: none; stroke-linecap: butt; stroke-dashoffset: 0; stroke-linejoin: miter; stroke-miterlimit: 10; fill: rgb(63,24,11); fill-rule: nonzero; opacity: 1;"  points="-260.15,0 0.05,0 55.25,0 260.15,0 " />
</g>
		<g transform="matrix(1 0 0 1 95 -139.35)" id="Layer_2"  >
<line style="stroke: rgb(234,169,54); stroke-width: 10; stroke-dasharray: none; stroke-linecap: butt; stroke-dashoffset: 0; stroke-linejoin: miter; stroke-miterlimit: 10; fill: rgb(63,24,11); fill-rule: nonzero; opacity: 1;"  x1="91.95000000000005" y1="-91.95000000000002" x2="-91.95000000000005" y2="91.95000000000002" />
</g>
		<g transform="matrix(1 0 0 1 -88.95 -139.35)" id="Layer_2"  >
<line style="stroke: rgb(234,169,54); stroke-width: 10; stroke-dasharray: none; stroke-linecap: butt; stroke-dashoffset: 0; stroke-linejoin: miter; stroke-miterlimit: 10; fill: rgb(63,24,11); fill-rule: nonzero; opacity: 1;"  x1="-92" y1="-91.95000000000002" x2="92" y2="91.95000000000002" />
</g>
		<g transform="matrix(1 0 0 1 3.15 -115.3)" id="Layer_2"  >
<path style="stroke: rgb(234,169,54); stroke-width: 10; stroke-dasharray: none; stroke-linecap: butt; stroke-dashoffset: 0; stroke-linejoin: miter; stroke-miterlimit: 10; fill: rgb(63,24,11); fill-rule: nonzero; opacity: 1;"  transform=" translate(-843.1, -334.7)" d="M 843.1 267.1 c -74.7 0 -135.2 60.5 -135.2 135.2 h 270.4 C 978.3 327.6 917.8 267.1 843.1 267.1 z" stroke-linecap="round" />
</g>
		<g transform="matrix(1 0 0 1 -710.7 103.92)" id="Layer_2"  >
<path style="stroke: rgb(234,169,54); stroke-width: 6; stroke-dasharray: none; stroke-linecap: butt; stroke-dashoffset: 0; stroke-linejoin: miter; stroke-miterlimit: 10; fill: rgb(168,14,2); fill-rule: nonzero; opacity: 1;"  transform=" translate(-129.25, -553.92)" d="M 182.1 575.1 c -0.2 0 -0.4 -0.1 -0.5 -0.3 l -22.3 -44.3 l -17.6 -34.8 c -4.4 -8 -9 -14.9 -22.7 -16.6 c -13.9 -1.8 -25.2 -0.6 -27.6 -0.3 c -0.3 0 -0.5 0.3 -0.5 0.5 V 499 c 0 0.3 0.2 0.5 0.5 0.5 H 115 c 0 0 0 0 0.1 0 l 5.8 -0.8 L 104.6 531 l -22.2 43.8 c -0.1 0.2 -0.3 0.3 -0.5 0.3 H 65.3 c -0.3 0 -0.5 0.2 -0.5 0.5 v 53.6 c 0 0.3 0.2 0.5 0.5 0.5 h 23 c 0.3 0 0.5 -0.2 0.5 -0.5 v -33.9 c 0 -0.3 0.2 -0.5 0.5 -0.5 h 79.9 c 0.3 0 0.5 0.2 0.5 0.5 v 33.9 c 0 0.3 0.2 0.5 0.5 0.5 h 23 c 0.3 0 0.5 -0.2 0.5 -0.5 v -36.4 v -17.2 c 0 -0.3 -0.2 -0.5 -0.5 -0.5 H 182.1 z M 131.8 575.1 h -23.2 c -0.4 0 -0.7 -0.4 -0.5 -0.8 l 11.6 -23.6 l 11.5 -22.9 c 0.2 -0.4 0.8 -0.4 1 0 l 11.5 23.1 l 11.6 23.3 c 0.2 0.4 -0.1 0.8 -0.5 0.8 H 131.8 z" stroke-linecap="round" />
</g>
		<g transform="matrix(1 0 0 1 -581.9 89.05)" id="Layer_2"  >
<path style="stroke: rgb(234,169,54); stroke-width: 6; stroke-dasharray: none; stroke-linecap: butt; stroke-dashoffset: 0; stroke-linejoin: miter; stroke-miterlimit: 10; fill: rgb(168,14,2); fill-rule: nonzero; opacity: 1;"  transform=" translate(-258.05, -539.05)" d="M 260 479.3 c -34.6 -1.1 -62.8 27.2 -61.7 61.7 c 1 31.3 26.5 56.8 57.8 57.8 c 34.6 1.1 62.8 -27.2 61.7 -61.7 C 316.8 505.8 291.3 480.3 260 479.3 z M 260.5 576.8 c -22.8 1.4 -41.6 -17.4 -40.2 -40.2 c 1.2 -18.8 16.5 -34.1 35.3 -35.3 c 22.8 -1.4 41.6 17.4 40.2 40.2 C 294.6 560.3 279.3 575.6 260.5 576.8 z" stroke-linecap="round" />
</g>
		<g transform="matrix(1 0 0 1 -463.8 89.19)" id="Layer_2"  >
<path style="stroke: rgb(234,169,54); stroke-width: 6; stroke-dasharray: none; stroke-linecap: butt; stroke-dashoffset: 0; stroke-linejoin: miter; stroke-miterlimit: 10; fill: rgb(168,14,2); fill-rule: nonzero; opacity: 1;"  transform=" translate(-376.15, -539.19)" d="M 405.8 538.6 l -20 -41.4 c -3.3 -6.8 -7.2 -15.2 -20.8 -16.9 c -12 -1.5 -21.8 -0.5 -24 -0.3 c -0.3 0 -0.5 0.3 -0.5 0.5 v 17.2 c 0 0.3 0.2 0.5 0.5 0.5 h 20.6 c 0 0 0.1 0 0.1 0 l 5.3 -0.8 l -20.8 41.7 l -29.4 59 c -0.2 0.4 0.1 0.8 0.5 0.8 h 21.4 c 0.2 0 0.4 -0.1 0.5 -0.3 l 18.3 -38.2 l 17.9 -36.2 c 0.2 -0.4 0.8 -0.4 1 0 l 17.9 36.8 l 18.3 37.5 c 0.1 0.2 0.3 0.3 0.5 0.3 h 21.9 c 0.4 0 0.7 -0.4 0.5 -0.8 L 405.8 538.6 z" stroke-linecap="round" />
</g>
		<g transform="matrix(1 0 0 1 -346.3 88.85)" id="Layer_2"  >
<path style="stroke: rgb(234,169,54); stroke-width: 6; stroke-dasharray: none; stroke-linecap: butt; stroke-dashoffset: 0; stroke-linejoin: miter; stroke-miterlimit: 10; fill: rgb(168,14,2); fill-rule: nonzero; opacity: 1;"  transform=" translate(-493.65, -538.85)" d="M 522.1 479.3 v 18.4 c 0 0.2 -0.1 0.4 -0.3 0.5 L 466 528.5 c -0.4 0.2 -0.8 -0.1 -0.8 -0.5 v -48.8 c 0 -0.3 -0.2 -0.5 -0.5 -0.5 h -19.7 c -0.3 0 -0.5 0.2 -0.5 0.5 v 119.3 c 0 0.3 0.2 0.5 0.5 0.5 h 19.7 c 0.3 0 0.5 -0.2 0.5 -0.5 v -45.9 c 0 -0.2 0.1 -0.4 0.3 -0.5 l 55.8 -30.3 c 0.4 -0.2 0.8 0.1 0.8 0.5 v 76.2 c 0 0.3 0.2 0.5 0.5 0.5 h 19.7 c 0.3 0 0.5 -0.2 0.5 -0.5 V 479.3 c 0 -0.3 -0.2 -0.5 -0.5 -0.5 h -19.7 C 522.3 478.8 522.1 479 522.1 479.3 z" stroke-linecap="round" />
</g>
		<g transform="matrix(1 0 0 1 -223.75 88.95)" id="Layer_2"  >
<path style="stroke: rgb(234,169,54); stroke-width: 6; stroke-dasharray: none; stroke-linecap: butt; stroke-dashoffset: 0; stroke-linejoin: miter; stroke-miterlimit: 10; fill: rgb(168,14,2); fill-rule: nonzero; opacity: 1;"  transform=" translate(-616.2, -538.95)" d="M 644.6 479.3 v 38.3 c 0 0.3 -0.2 0.5 -0.5 0.5 h -55.8 c -0.3 0 -0.5 -0.2 -0.5 -0.5 v -38.3 c 0 -0.3 -0.2 -0.5 -0.5 -0.5 h -19.7 c -0.3 0 -0.5 0.2 -0.5 0.5 v 119.3 c 0 0.3 0.2 0.5 0.5 0.5 h 19.7 c 0.3 0 0.5 -0.2 0.5 -0.5 v -59.1 c 0 -0.3 0.2 -0.5 0.5 -0.5 h 55.8 c 0.3 0 0.5 0.2 0.5 0.5 v 59.1 c 0 0.3 0.2 0.5 0.5 0.5 h 19.7 c 0.3 0 0.5 -0.2 0.5 -0.5 V 479.3 c 0 -0.3 -0.2 -0.5 -0.5 -0.5 h -19.7 C 644.9 478.8 644.6 479 644.6 479.3 z" stroke-linecap="round" />
</g>
		<g transform="matrix(1 0 0 1 -99 89.36)" id="Layer_2"  >
<path style="stroke: rgb(234,169,54); stroke-width: 6; stroke-dasharray: none; stroke-linecap: butt; stroke-dashoffset: 0; stroke-linejoin: miter; stroke-miterlimit: 10; fill: rgb(168,14,2); fill-rule: nonzero; opacity: 1;"  transform=" translate(-740.95, -539.36)" d="M 773 542.3 l -21.8 -47.6 l -7.5 -15.6 c -0.1 -0.2 -0.3 -0.3 -0.5 -0.3 h -21.7 c -0.4 0 -0.7 0.4 -0.5 0.8 l 11.1 23.5 c 0.1 0.2 0 0.5 -0.2 0.7 c -8.3 5.4 -16.8 12.8 -24.5 21.9 c -23.2 27 -31 58.3 -17.5 69.9 c 13.5 11.6 43.2 -1 66.4 -28.1 c 1 -1.2 1.9 -2.3 2.9 -3.5 c 0.3 -0.3 0.8 -0.3 0.9 0.1 l 15.6 35.3 c 0.1 0.2 0.3 0.3 0.5 0.3 l 21.9 -0.5 c 0.4 0 0.6 -0.4 0.5 -0.8 L 773 542.3 z M 745.1 557.8 c -13.2 15.4 -29.8 22.9 -37.1 16.7 c -7.3 -6.2 -2.5 -23.8 10.7 -39.2 c 6.4 -7.5 13.6 -13.1 20.1 -16.2 c 0.3 -0.1 0.6 0 0.7 0.3 l 12.8 27.9 c 0.1 0.2 0.1 0.4 0 0.5 C 750.3 551.1 747.9 554.5 745.1 557.8 z" stroke-linecap="round" />
</g>
		<g transform="matrix(1 0 0 1 46.71 88.95)" id="Layer_2"  >
<path style="stroke: rgb(234,169,54); stroke-width: 6; stroke-dasharray: none; stroke-linecap: butt; stroke-dashoffset: 0; stroke-linejoin: miter; stroke-miterlimit: 10; fill: rgb(168,14,2); fill-rule: nonzero; opacity: 1;"  transform=" translate(-886.66, -538.95)" d="M 936.8 504.3 c 4.5 -7.1 5.3 -22 5.4 -25 c 0 -0.3 -0.2 -0.6 -0.5 -0.6 H 922 c -0.3 0 -0.5 0.2 -0.5 0.5 v 11.2 c -0.4 -0.3 -0.8 -0.5 -1.2 -0.8 c -9.6 -6.4 -21.1 -10.1 -33.6 -10 c -32.6 0.2 -59.3 27.1 -59.4 59.7 c -0.1 33.1 26.7 59.9 59.8 59.9 c 29.4 0 53.9 -21.2 58.9 -49.2 c 0.1 -0.3 -0.2 -0.7 -0.5 -0.6 l -21.5 0.1 c -0.2 0 -0.4 0.2 -0.5 0.4 c -4.7 16.4 -20.2 28.2 -38.3 27.3 c -19.5 -1 -35.3 -17.1 -35.8 -36.7 c -0.6 -21.4 16.6 -38.9 37.8 -38.9 c 13.4 0 22.8 5.5 31.4 7.2 C 927 510.5 933.2 509.9 936.8 504.3 z" stroke-linecap="round" />
</g>
		<g transform="matrix(1 0 0 1 161.1 88.9)" id="Layer_2"  >
<path style="stroke: rgb(234,169,54); stroke-width: 6; stroke-dasharray: none; stroke-linecap: butt; stroke-dashoffset: 0; stroke-linejoin: miter; stroke-miterlimit: 10; fill: rgb(168,14,2); fill-rule: nonzero; opacity: 1;"  transform=" translate(-1001.05, -538.9)" d="M 1028.7 479.3 v 19.6 c 0 0.1 0 0.2 -0.1 0.3 c -1.5 2.4 -22.6 35.7 -37.9 35.7 c -11.6 0 -19 -23.1 -22.5 -55.7 c 0 -0.3 -0.3 -0.5 -0.5 -0.5 h -14.3 c -0.3 0 -0.6 0.3 -0.6 0.6 c 1.3 47.8 23.5 77.5 37.8 77.5 c 13.9 0 32.6 -24.6 37 -30.8 c 0.3 -0.4 1 -0.2 1 0.3 v 72.3 c 0 0.3 0.2 0.5 0.5 0.5 h 19.7 c 0.3 0 0.5 -0.2 0.5 -0.5 V 479.3 c 0 -0.3 -0.2 -0.5 -0.5 -0.5 h -19.7 C 1029 478.8 1028.7 479 1028.7 479.3 z" stroke-linecap="round" />
</g>
		<g transform="matrix(1 0 0 1 279.1 89.16)" id="Layer_2"  >
<path style="stroke: rgb(234,169,54); stroke-width: 6; stroke-dasharray: none; stroke-linecap: butt; stroke-dashoffset: 0; stroke-linejoin: miter; stroke-miterlimit: 10; fill: rgb(168,14,2); fill-rule: nonzero; opacity: 1;"  transform=" translate(-1119.05, -539.16)" d="M 1151.1 542.1 l -21.8 -47.6 l -7.5 -15.6 c -0.1 -0.2 -0.3 -0.3 -0.5 -0.3 h -21.7 c -0.4 0 -0.7 0.4 -0.5 0.8 l 11.1 23.5 c 0.1 0.2 0 0.5 -0.2 0.7 c -8.3 5.4 -16.8 12.8 -24.5 21.9 c -23.2 27 -31 58.3 -17.5 69.9 c 13.5 11.6 43.2 -1 66.4 -28.1 c 1 -1.2 1.9 -2.3 2.9 -3.5 c 0.3 -0.3 0.8 -0.3 0.9 0.1 l 15.6 35.3 c 0.1 0.2 0.3 0.3 0.5 0.3 l 21.9 -0.5 c 0.4 0 0.6 -0.4 0.5 -0.8 L 1151.1 542.1 z M 1123.2 557.5 c -13.2 15.4 -29.8 22.9 -37.1 16.7 c -7.3 -6.2 -2.5 -23.8 10.7 -39.2 c 6.4 -7.5 13.6 -13.1 20.1 -16.2 c 0.3 -0.1 0.6 0 0.7 0.3 l 12.8 27.9 c 0.1 0.2 0.1 0.4 0 0.5 C 1128.5 550.9 1126.1 554.2 1123.2 557.5 z" stroke-linecap="round" />
</g>
		<g transform="matrix(1 0 0 1 384.69 88.35)" id="Layer_2"  >
<path style="stroke: rgb(234,169,54); stroke-width: 6; stroke-dasharray: none; stroke-linecap: butt; stroke-dashoffset: 0; stroke-linejoin: miter; stroke-miterlimit: 10; fill: rgb(168,14,2); fill-rule: nonzero; opacity: 1;"  transform=" translate(-1224.64, -538.35)" d="M 1274.6 503.7 c 4.5 -7.1 5.3 -22 5.4 -25 c 0 -0.3 -0.2 -0.6 -0.5 -0.6 h -19.6 c -0.3 0 -0.5 0.2 -0.5 0.5 v 11.2 c -0.4 -0.3 -0.8 -0.5 -1.2 -0.8 c -16.4 -10.9 -38.4 -14 -60.8 -3.8 c -11.5 5.2 -20.7 14.4 -25.9 25.9 c -20.2 44.3 11.6 87.5 53.6 87.5 c 29.4 0 53.9 -21.2 58.9 -49.2 c 0.1 -0.3 -0.2 -0.7 -0.5 -0.6 l -21.5 0.1 c -0.2 0 -0.4 0.2 -0.5 0.4 c -6.1 21.1 -30.1 34.7 -54.5 23.1 c -7.1 -3.4 -12.6 -9.2 -15.8 -16.3 c -12.6 -27.9 7.5 -55.1 34 -55.1 c 13.4 0 22.8 5.5 31.4 7.2 C 1264.8 509.8 1271 509.3 1274.6 503.7 z" stroke-linecap="round" />
</g>
		<g transform="matrix(1 0 0 1 501 88.35)" id="Layer_2"  >
<path style="stroke: rgb(234,169,54); stroke-width: 6; stroke-dasharray: none; stroke-linecap: butt; stroke-dashoffset: 0; stroke-linejoin: miter; stroke-miterlimit: 10; fill: rgb(168,14,2); fill-rule: nonzero; opacity: 1;"  transform=" translate(-1340.95, -538.35)" d="M 1374.5 477.7 L 1374.5 477.7 h -23 l 0 0 h -20.8 l 0 0 h -23 h -20.2 c -0.3 0 -0.5 0.2 -0.5 0.5 v 20.4 v 19 c 0 0.3 0.2 0.5 0.5 0.5 h 19.7 c 0.3 0 0.5 -0.2 0.5 -0.5 V 499 c 0 -0.3 0.2 -0.5 0.5 -0.5 h 21.9 c 0.3 0 0.5 0.2 0.5 0.5 v 99.6 c 0 0.3 0.2 0.5 0.5 0.5 h 19.7 c 0.3 0 0.5 -0.2 0.5 -0.5 V 499 c 0 -0.3 0.2 -0.5 0.5 -0.5 h 21.9 c 0.3 0 0.5 0.2 0.5 0.5 v 18.6 c 0 0.3 0.2 0.5 0.5 0.5 h 19.7 c 0.3 0 0.5 -0.2 0.5 -0.5 v -19 v -20.8 v -0.2 H 1374.5 z" stroke-linecap="round" />
</g>
		<g transform="matrix(1 0 0 1 616.8 88.4)" id="Layer_2"  >
<path style="stroke: rgb(234,169,54); stroke-width: 6; stroke-dasharray: none; stroke-linecap: butt; stroke-dashoffset: 0; stroke-linejoin: miter; stroke-miterlimit: 10; fill: rgb(168,14,2); fill-rule: nonzero; opacity: 1;"  transform=" translate(-1456.75, -538.4)" d="M 1504.3 599 c 0.3 0 0.6 -0.3 0.6 -0.6 c -1.3 -48.2 -23.4 -79.6 -37.7 -79.6 c -13.9 0 -32.5 24.5 -36.9 30.7 c -0.3 0.4 -1 0.2 -1 -0.3 v -71 c 0 -0.3 -0.2 -0.5 -0.5 -0.5 h -19.7 c -0.3 0 -0.5 0.2 -0.5 0.5 v 100.5 v 19.9 c 0 0.3 0.2 0.5 0.5 0.5 L 1504.3 599 z M 1429.2 576.7 c 0 -0.1 0 -0.2 0.1 -0.3 c 1.5 -2.4 22.5 -35.8 37.9 -35.8 c 9.1 0 16 15.5 20.3 37.1 c 0.1 0.3 -0.2 0.7 -0.5 0.7 h -57.2 c -0.3 0 -0.5 -0.2 -0.5 -0.5 V 576.7 z" stroke-linecap="round" />
</g>
		<g transform="matrix(1 0 0 1 724.16 88.35)" id="Layer_2"  >
<path style="stroke: rgb(234,169,54); stroke-width: 6; stroke-dasharray: none; stroke-linecap: butt; stroke-dashoffset: 0; stroke-linejoin: miter; stroke-miterlimit: 10; fill: rgb(168,14,2); fill-rule: nonzero; opacity: 1;"  transform=" translate(-1564.11, -538.35)" d="M 1594.4 478.2 v 21.1 c 0 0.5 -0.6 0.7 -0.9 0.4 c -1.2 -1 -2.8 -2.1 -4.1 -3.1 c -25.5 -18.7 -54 -24 -63.9 -11.8 c -9.5 11.7 1.7 35.3 25.2 53.8 c 0.2 0.2 0.3 0.5 0.1 0.7 l -37.8 59 c -0.2 0.4 0 0.8 0.5 0.8 h 24.2 c 0.2 0 0.4 -0.1 0.5 -0.3 l 30.3 -48.3 c 0.1 -0.2 0.5 -0.3 0.7 -0.2 c 8.8 4.5 17.4 7.3 24.9 8.4 c 0.3 0 0.5 0.3 0.5 0.5 v 39.3 c 0 0.3 0.2 0.5 0.5 0.5 h 19.7 c 0.3 0 0.5 -0.2 0.5 -0.5 v -43.3 v -31.8 v -45.3 c 0 -0.3 -0.2 -0.5 -0.5 -0.5 H 1595 C 1594.7 477.7 1594.4 477.9 1594.4 478.2 z M 1594.4 538 c 0 0.2 -0.1 0.4 -0.2 0.5 c -6.7 4.5 -20.7 1.2 -33.5 -8.2 c -14.1 -10.4 -21.1 -24.3 -15.6 -31.1 c 5.5 -6.8 21.3 -3.8 35.4 6.5 c 6.1 4.5 10.6 9.7 13.9 14.7 c 0.1 0.1 0.1 0.2 0.1 0.3 V 538 z" stroke-linecap="round" />
</g>
</g>
</g>
</svg>